<?xml version="1.0" encoding="UTF-8"?>
<svg width="80px" height="80px" viewBox="0 0 80 80" version="1.1" xmlns="http://www.w3.org/2000/svg" xmlns:xlink="http://www.w3.org/1999/xlink">
    <!-- Generator: Sketch 63.1 (92452) - https://sketch.com -->
    <title>Icon/Cards/Groups/Default</title>
    <desc>Created with Sketch.</desc>
    <g id="Icon/Cards/Groups/Default" stroke="none" stroke-width="1" fill="none" fill-rule="evenodd">
        <circle id="Oval" fill-opacity="0.05" fill="#000000" fill-rule="nonzero" cx="40" cy="40" r="40"></circle>
        <g id="Group" transform="translate(20.000000, 20.000000)">
            <polygon id="Path" points="0 0 40 0 40 40 0 40"></polygon>
            <path d="M26.6666667,18.3333333 C29.4333333,18.3333333 31.65,16.1 31.65,13.3333333 C31.65,10.5666667 29.4333333,8.33333333 26.6666667,8.33333333 C23.9,8.33333333 21.6666667,10.5666667 21.6666667,13.3333333 C21.6666667,16.1 23.9,18.3333333 26.6666667,18.3333333 Z M13.3333333,18.3333333 C16.1,18.3333333 18.3166667,16.1 18.3166667,13.3333333 C18.3166667,10.5666667 16.1,8.33333333 13.3333333,8.33333333 C10.5666667,8.33333333 8.33333333,10.5666667 8.33333333,13.3333333 C8.33333333,16.1 10.5666667,18.3333333 13.3333333,18.3333333 Z M13.3333333,21.6666667 C9.45,21.6666667 1.66666667,23.6166667 1.66666667,27.5 L1.66666667,30 C1.66666667,30.9166667 2.41666667,31.6666667 3.33333333,31.6666667 L23.3333333,31.6666667 C24.25,31.6666667 25,30.9166667 25,30 L25,27.5 C25,23.6166667 17.2166667,21.6666667 13.3333333,21.6666667 Z M26.6666667,21.6666667 C26.1833333,21.6666667 25.6333333,21.7 25.05,21.75 C25.0833333,21.7666667 25.1,21.8 25.1166667,21.8166667 C27.0166667,23.2 28.3333333,25.05 28.3333333,27.5 L28.3333333,30 C28.3333333,30.5833333 28.2166667,31.15 28.0333333,31.6666667 L36.6666667,31.6666667 C37.5833333,31.6666667 38.3333333,30.9166667 38.3333333,30 L38.3333333,27.5 C38.3333333,23.6166667 30.55,21.6666667 26.6666667,21.6666667 Z" id="Shape" fill-opacity="0.5" fill="#000000" fill-rule="nonzero"></path>
        </g>
    </g>
</svg>