<?xml version="1.0" encoding="UTF-8"?>
<svg width="80px" height="80px" viewBox="0 0 80 80" version="1.1" xmlns="http://www.w3.org/2000/svg" xmlns:xlink="http://www.w3.org/1999/xlink">
    <!-- Generator: Sketch 63.1 (92452) - https://sketch.com -->
    <title>Icon/Cards/Hotels/Default</title>
    <desc>Created with Sketch.</desc>
    <g id="Icon/Cards/Hotels/Default" stroke="none" stroke-width="1" fill="none" fill-rule="evenodd">
        <g id="Icon_Cards">
            <circle id="Oval" fill-opacity="0.05" fill="#000000" fill-rule="nonzero" cx="40" cy="40" r="40"></circle>
            <g id="hotel" transform="translate(20.000000, 20.000000)">
                <polygon id="Path" points="0 0 40 0 40 40 0 40"></polygon>
                <path d="M11.6666667,21.6666667 C14.4333333,21.6666667 16.6666667,19.4333333 16.6666667,16.6666667 C16.6666667,13.9 14.4333333,11.6666667 11.6666667,11.6666667 C8.9,11.6666667 6.66666667,13.9 6.66666667,16.6666667 C6.66666667,19.4333333 8.9,21.6666667 11.6666667,21.6666667 Z M31.6666667,11.6666667 L21.6666667,11.6666667 C19.8333333,11.6666667 18.3333333,13.1666667 18.3333333,15 L18.3333333,23.3333333 L5,23.3333333 L5,10 C5,9.08333333 4.25,8.33333333 3.33333333,8.33333333 C2.41666667,8.33333333 1.66666667,9.08333333 1.66666667,10 L1.66666667,31.6666667 C1.66666667,32.5833333 2.41666667,33.3333333 3.33333333,33.3333333 C4.25,33.3333333 5,32.5833333 5,31.6666667 L5,28.3333333 L35,28.3333333 L35,31.6666667 C35,32.5833333 35.75,33.3333333 36.6666667,33.3333333 C37.5833333,33.3333333 38.3333333,32.5833333 38.3333333,31.6666667 L38.3333333,18.3333333 C38.3333333,14.65 35.35,11.6666667 31.6666667,11.6666667 Z" id="Shape" fill-opacity="0.5" fill="#000000" fill-rule="nonzero"></path>
            </g>
        </g>
    </g>
</svg>