<?xml version="1.0" encoding="utf-8"?>
<!-- Generator: Adobe Illustrator 23.1.1, SVG Export Plug-In . SVG Version: 6.00 Build 0)  -->
<svg version="1.1" id="Layer_1" xmlns="http://www.w3.org/2000/svg" xmlns:xlink="http://www.w3.org/1999/xlink" x="0px" y="0px"
	 viewBox="0 0 80 80" style="enable-background:new 0 0 80 80;" xml:space="preserve">
<style type="text/css">
	.st0{fill-opacity:5.000000e-02;}
	.st1{fill-rule:evenodd;clip-rule:evenodd;fill-opacity:0.5;}
</style>
<title>Icon/Cards/YaVas/Default</title>
<desc>Created with Sketch.</desc>
<g>
	<circle id="Oval" class="st0" cx="40" cy="40" r="40"/>
	<g id="YaVas" transform="translate(20.000000, 23.000000)">
		<path id="Fill-1" class="st1" d="M-5.7,17.3L-11,9.2h3.9l3,5.3L-1,9.2h3.7l-5.3,8.1v6h-3.1V17.3z M5.8,9.2h2.6l6.1,14.1H11l-1.2-3
			H4.3l-1.2,3h-3.4L5.8,9.2z M7,13.3l-1.7,4.4h3.4L7,13.3z M15.4,9.2h3.5l3.5,9.2h0L26,9.2h3.3l-5.8,14.1H21L15.4,9.2z M32.4,9.2
			h2.6l6.1,14.1h-3.5l-1.2-3h-5.5l-1.2,3h-3.4L32.4,9.2z M33.6,13.3l-1.7,4.4h3.4L33.6,13.3z M48.9,12.9c-0.5-0.6-1.4-0.9-2.1-0.9
			c-0.8,0-2,0.4-2,1.4c0,2.4,6.2,0.9,6.2,5.6c0,3-2.4,4.4-5.2,4.4c-1.7,0-3.2-0.5-4.5-1.7l2.1-2.3c0.6,0.8,1.6,1.3,2.6,1.3
			c1,0,2-0.5,2-1.4c0-2.5-6.3-1.1-6.3-5.6c0-2.9,2.5-4.3,5.1-4.3c1.5,0,3,0.4,4.1,1.4L48.9,12.9z"/>
	</g>
</g>
</svg>
